<mxfile host="app.diagrams.net" modified="2023-12-06T13:18:18.322Z" agent="Mozilla/5.0 (Windows NT 10.0; Win64; x64; rv:120.0) Gecko/20100101 Firefox/120.0" etag="hEuhSu99jrRKUyNjPyZk" version="22.1.5" type="github">
  <diagram name="Page-1" id="ZcCOom0ZRcwhTTcIi5ig">
    <mxGraphModel dx="825" dy="542" grid="1" gridSize="10" guides="1" tooltips="1" connect="1" arrows="1" fold="1" page="1" pageScale="1" pageWidth="2339" pageHeight="3300" math="0" shadow="0">
      <root>
        <mxCell id="0" />
        <mxCell id="1" parent="0" />
        <mxCell id="V1OTD0DoKeFT5B3Rm7D--30" style="edgeStyle=orthogonalEdgeStyle;rounded=0;orthogonalLoop=1;jettySize=auto;html=1;exitX=0;exitY=0.5;exitDx=0;exitDy=0;entryX=1;entryY=0.5;entryDx=0;entryDy=0;endArrow=ERoneToMany;endFill=0;startArrow=ERmandOne;startFill=0;" edge="1" parent="1" source="V1OTD0DoKeFT5B3Rm7D--1" target="V1OTD0DoKeFT5B3Rm7D--3">
          <mxGeometry relative="1" as="geometry" />
        </mxCell>
        <mxCell id="V1OTD0DoKeFT5B3Rm7D--1" value="HOTEL" style="html=1;whiteSpace=wrap;" vertex="1" parent="1">
          <mxGeometry x="660" y="220" width="110" height="50" as="geometry" />
        </mxCell>
        <mxCell id="V1OTD0DoKeFT5B3Rm7D--9" style="edgeStyle=orthogonalEdgeStyle;rounded=0;orthogonalLoop=1;jettySize=auto;html=1;exitX=0;exitY=0.5;exitDx=0;exitDy=0;entryX=0;entryY=0.5;entryDx=0;entryDy=0;endArrow=none;endFill=0;" edge="1" parent="1" source="V1OTD0DoKeFT5B3Rm7D--2" target="V1OTD0DoKeFT5B3Rm7D--6">
          <mxGeometry relative="1" as="geometry" />
        </mxCell>
        <mxCell id="V1OTD0DoKeFT5B3Rm7D--27" style="edgeStyle=orthogonalEdgeStyle;rounded=0;orthogonalLoop=1;jettySize=auto;html=1;exitX=0;exitY=0.25;exitDx=0;exitDy=0;entryX=1;entryY=0.5;entryDx=0;entryDy=0;startArrow=ERmandOne;startFill=0;endArrow=ERoneToMany;endFill=0;" edge="1" parent="1" source="V1OTD0DoKeFT5B3Rm7D--2" target="V1OTD0DoKeFT5B3Rm7D--1">
          <mxGeometry relative="1" as="geometry" />
        </mxCell>
        <mxCell id="V1OTD0DoKeFT5B3Rm7D--2" value="GRAD" style="html=1;whiteSpace=wrap;" vertex="1" parent="1">
          <mxGeometry x="900" y="220" width="110" height="50" as="geometry" />
        </mxCell>
        <mxCell id="V1OTD0DoKeFT5B3Rm7D--3" value="&lt;div&gt;SOBA&lt;/div&gt;" style="html=1;whiteSpace=wrap;" vertex="1" parent="1">
          <mxGeometry x="390" y="220" width="110" height="50" as="geometry" />
        </mxCell>
        <mxCell id="V1OTD0DoKeFT5B3Rm7D--5" style="edgeStyle=orthogonalEdgeStyle;rounded=0;orthogonalLoop=1;jettySize=auto;html=1;exitX=0;exitY=0.5;exitDx=0;exitDy=0;entryX=0;entryY=0.75;entryDx=0;entryDy=0;endArrow=none;endFill=0;" edge="1" parent="1" source="V1OTD0DoKeFT5B3Rm7D--4" target="V1OTD0DoKeFT5B3Rm7D--1">
          <mxGeometry relative="1" as="geometry" />
        </mxCell>
        <mxCell id="V1OTD0DoKeFT5B3Rm7D--4" value="sifraHotela" style="ellipse;whiteSpace=wrap;html=1;align=center;fontStyle=4;" vertex="1" parent="1">
          <mxGeometry x="670" y="280" width="100" height="40" as="geometry" />
        </mxCell>
        <mxCell id="V1OTD0DoKeFT5B3Rm7D--6" value="&lt;u&gt;postBr&lt;/u&gt;" style="ellipse;whiteSpace=wrap;html=1;align=center;" vertex="1" parent="1">
          <mxGeometry x="905" y="290" width="100" height="40" as="geometry" />
        </mxCell>
        <mxCell id="V1OTD0DoKeFT5B3Rm7D--10" style="edgeStyle=orthogonalEdgeStyle;rounded=0;orthogonalLoop=1;jettySize=auto;html=1;exitX=0;exitY=0.5;exitDx=0;exitDy=0;endArrow=none;endFill=0;" edge="1" parent="1" source="V1OTD0DoKeFT5B3Rm7D--7">
          <mxGeometry relative="1" as="geometry">
            <mxPoint x="880" y="310" as="targetPoint" />
          </mxGeometry>
        </mxCell>
        <mxCell id="V1OTD0DoKeFT5B3Rm7D--7" value="naziv" style="ellipse;whiteSpace=wrap;html=1;align=center;" vertex="1" parent="1">
          <mxGeometry x="905" y="340" width="100" height="40" as="geometry" />
        </mxCell>
        <mxCell id="V1OTD0DoKeFT5B3Rm7D--11" style="edgeStyle=orthogonalEdgeStyle;rounded=0;orthogonalLoop=1;jettySize=auto;html=1;exitX=0;exitY=0.5;exitDx=0;exitDy=0;endArrow=none;endFill=0;" edge="1" parent="1" source="V1OTD0DoKeFT5B3Rm7D--8">
          <mxGeometry relative="1" as="geometry">
            <mxPoint x="880" y="350" as="targetPoint" />
          </mxGeometry>
        </mxCell>
        <mxCell id="V1OTD0DoKeFT5B3Rm7D--8" value="drÅ¾ava" style="ellipse;whiteSpace=wrap;html=1;align=center;" vertex="1" parent="1">
          <mxGeometry x="910" y="390" width="100" height="40" as="geometry" />
        </mxCell>
        <mxCell id="V1OTD0DoKeFT5B3Rm7D--12" style="edgeStyle=orthogonalEdgeStyle;rounded=0;orthogonalLoop=1;jettySize=auto;html=1;exitX=0;exitY=0.5;exitDx=0;exitDy=0;entryX=0;entryY=0.75;entryDx=0;entryDy=0;endArrow=none;endFill=0;" edge="1" parent="1" source="V1OTD0DoKeFT5B3Rm7D--13">
          <mxGeometry relative="1" as="geometry">
            <mxPoint x="390" y="250" as="targetPoint" />
          </mxGeometry>
        </mxCell>
        <mxCell id="V1OTD0DoKeFT5B3Rm7D--13" value="BrojSobe" style="ellipse;whiteSpace=wrap;html=1;align=center;fontStyle=4;" vertex="1" parent="1">
          <mxGeometry x="400" y="272" width="100" height="40" as="geometry" />
        </mxCell>
        <mxCell id="V1OTD0DoKeFT5B3Rm7D--16" style="edgeStyle=orthogonalEdgeStyle;rounded=0;orthogonalLoop=1;jettySize=auto;html=1;exitX=0;exitY=0.5;exitDx=0;exitDy=0;endArrow=none;endFill=0;" edge="1" parent="1">
          <mxGeometry relative="1" as="geometry">
            <mxPoint x="380" y="290" as="targetPoint" />
            <mxPoint x="400" y="340" as="sourcePoint" />
          </mxGeometry>
        </mxCell>
        <mxCell id="V1OTD0DoKeFT5B3Rm7D--17" style="edgeStyle=orthogonalEdgeStyle;rounded=0;orthogonalLoop=1;jettySize=auto;html=1;exitX=0;exitY=0.5;exitDx=0;exitDy=0;endArrow=none;endFill=0;" edge="1" parent="1">
          <mxGeometry relative="1" as="geometry">
            <mxPoint x="380" y="340" as="targetPoint" />
            <mxPoint x="400" y="390" as="sourcePoint" />
          </mxGeometry>
        </mxCell>
        <mxCell id="V1OTD0DoKeFT5B3Rm7D--19" style="edgeStyle=orthogonalEdgeStyle;rounded=0;orthogonalLoop=1;jettySize=auto;html=1;exitX=0;exitY=0.5;exitDx=0;exitDy=0;endArrow=none;endFill=0;" edge="1" parent="1">
          <mxGeometry relative="1" as="geometry">
            <mxPoint x="380" y="390" as="targetPoint" />
            <mxPoint x="400" y="450" as="sourcePoint" />
          </mxGeometry>
        </mxCell>
        <mxCell id="V1OTD0DoKeFT5B3Rm7D--25" style="edgeStyle=orthogonalEdgeStyle;rounded=0;orthogonalLoop=1;jettySize=auto;html=1;exitX=0;exitY=0.5;exitDx=0;exitDy=0;endArrow=none;endFill=0;" edge="1" parent="1" source="V1OTD0DoKeFT5B3Rm7D--20">
          <mxGeometry relative="1" as="geometry">
            <mxPoint x="640" y="300" as="targetPoint" />
          </mxGeometry>
        </mxCell>
        <mxCell id="V1OTD0DoKeFT5B3Rm7D--20" value="brojZvjezdica" style="ellipse;whiteSpace=wrap;html=1;align=center;" vertex="1" parent="1">
          <mxGeometry x="670" y="330" width="100" height="40" as="geometry" />
        </mxCell>
        <mxCell id="V1OTD0DoKeFT5B3Rm7D--26" style="edgeStyle=orthogonalEdgeStyle;rounded=0;orthogonalLoop=1;jettySize=auto;html=1;exitX=0;exitY=0.5;exitDx=0;exitDy=0;endArrow=none;endFill=0;" edge="1" parent="1" source="V1OTD0DoKeFT5B3Rm7D--21">
          <mxGeometry relative="1" as="geometry">
            <mxPoint x="640" y="350" as="targetPoint" />
          </mxGeometry>
        </mxCell>
        <mxCell id="V1OTD0DoKeFT5B3Rm7D--21" value="adresa" style="ellipse;whiteSpace=wrap;html=1;align=center;" vertex="1" parent="1">
          <mxGeometry x="670" y="380" width="100" height="40" as="geometry" />
        </mxCell>
        <mxCell id="V1OTD0DoKeFT5B3Rm7D--22" value="cijena" style="ellipse;whiteSpace=wrap;html=1;align=center;" vertex="1" parent="1">
          <mxGeometry x="395" y="320" width="100" height="40" as="geometry" />
        </mxCell>
        <mxCell id="V1OTD0DoKeFT5B3Rm7D--23" value="dostupnost" style="ellipse;whiteSpace=wrap;html=1;align=center;" vertex="1" parent="1">
          <mxGeometry x="395" y="370" width="100" height="40" as="geometry" />
        </mxCell>
        <mxCell id="V1OTD0DoKeFT5B3Rm7D--24" value="brojKreveta" style="ellipse;whiteSpace=wrap;html=1;align=center;" vertex="1" parent="1">
          <mxGeometry x="390" y="430" width="100" height="40" as="geometry" />
        </mxCell>
        <mxCell id="V1OTD0DoKeFT5B3Rm7D--28" value="nalazi se" style="text;html=1;align=center;verticalAlign=middle;resizable=0;points=[];autosize=1;strokeColor=none;fillColor=none;" vertex="1" parent="1">
          <mxGeometry x="865" y="178" width="70" height="30" as="geometry" />
        </mxCell>
        <mxCell id="V1OTD0DoKeFT5B3Rm7D--29" value="se nalazi" style="text;html=1;align=center;verticalAlign=middle;resizable=0;points=[];autosize=1;strokeColor=none;fillColor=none;" vertex="1" parent="1">
          <mxGeometry x="730" y="190" width="70" height="30" as="geometry" />
        </mxCell>
        <mxCell id="V1OTD0DoKeFT5B3Rm7D--31" value="se nalazi" style="text;html=1;align=center;verticalAlign=middle;resizable=0;points=[];autosize=1;strokeColor=none;fillColor=none;" vertex="1" parent="1">
          <mxGeometry x="460" y="190" width="70" height="30" as="geometry" />
        </mxCell>
        <mxCell id="V1OTD0DoKeFT5B3Rm7D--32" value="se nalazi" style="text;html=1;align=center;verticalAlign=middle;resizable=0;points=[];autosize=1;strokeColor=none;fillColor=none;" vertex="1" parent="1">
          <mxGeometry x="610" y="200" width="70" height="30" as="geometry" />
        </mxCell>
        <mxCell id="V1OTD0DoKeFT5B3Rm7D--34" style="edgeStyle=orthogonalEdgeStyle;rounded=0;orthogonalLoop=1;jettySize=auto;html=1;exitX=0;exitY=0.5;exitDx=0;exitDy=0;endArrow=none;endFill=0;" edge="1" parent="1" source="V1OTD0DoKeFT5B3Rm7D--33">
          <mxGeometry relative="1" as="geometry">
            <mxPoint x="640" y="400" as="targetPoint" />
          </mxGeometry>
        </mxCell>
        <mxCell id="V1OTD0DoKeFT5B3Rm7D--33" value="naziv" style="ellipse;whiteSpace=wrap;html=1;align=center;" vertex="1" parent="1">
          <mxGeometry x="670" y="430" width="100" height="40" as="geometry" />
        </mxCell>
      </root>
    </mxGraphModel>
  </diagram>
</mxfile>
